<svg width="1240" height="243" viewBox="0 0 1240 243" fill="none" xmlns="http://www.w3.org/2000/svg">
<path d="M1112.87 130.633V238.328H1079.04V56.763H1112.87V105.751H1113.25C1121.03 68.8155 1144.75 52.0975 1176.63 52.0975C1223.67 52.0975 1240 83.2008 1240 122.08V238.328H1206.18V130.633C1206.18 105.751 1195.68 82.812 1162.63 82.812C1131.53 82.812 1112.87 100.308 1112.87 130.633Z" fill="#190805"/>
<path d="M929.662 130.633V238.328H895.837V56.763H929.662V105.751H930.05C937.826 68.8155 961.542 52.0975 993.423 52.0975C1040.47 52.0975 1056.8 83.2008 1056.8 122.08V238.328H1022.97V130.633C1022.97 105.751 1012.47 82.812 979.427 82.812C948.324 82.812 929.662 100.308 929.662 130.633Z" fill="#190805"/>
<path d="M870.753 28.7705H832.263V0H870.753V28.7705ZM868.032 238.329H834.596V56.7635H868.032V238.329Z" fill="#190805"/>
<path d="M681.719 130.634V238.329H647.894V0H681.719V105.751H682.107C689.883 68.816 713.599 52.098 745.48 52.098C792.524 52.098 808.853 83.2013 808.853 122.08V238.329H775.029V130.634C775.029 105.751 764.531 82.8125 731.484 82.8125C700.381 82.8125 681.719 100.308 681.719 130.634Z" fill="#190805"/>
<path d="M536.171 242.994C468.91 242.606 438.585 206.448 432.753 159.016L467.355 152.017C473.576 188.952 497.681 211.502 538.115 211.502C572.717 211.502 590.213 197.506 590.213 175.734C590.213 153.961 575.05 143.075 529.562 135.688C465.411 125.191 444.805 99.9193 444.805 65.7057C444.805 26.4378 474.353 0.388835 528.007 0.388835C586.714 0.388835 611.208 33.4361 620.15 76.5919L585.159 83.5901C577.772 49.7653 562.998 31.1033 526.451 31.1033C497.681 31.1033 480.574 44.3222 480.574 64.9281C480.574 83.2013 491.072 96.0314 543.947 105.362C608.875 116.249 626.371 141.909 626.371 174.178C626.371 215.39 597.989 242.994 536.171 242.994Z" fill="#190805"/>
<path d="M319.45 208.001H376.991V238.327H217.586V208.001L334.224 86.6983L333.835 86.3095C312.451 86.6983 287.569 87.0871 264.63 87.0871H220.697V56.7614H375.047V87.0871L258.409 208.001L258.798 208.779C278.238 208.39 300.01 208.001 319.45 208.001Z" fill="#190805"/>
<path d="M199.885 28.7705H161.395V0H199.885V28.7705ZM197.164 238.329H163.728V56.7635H197.164V238.329Z" fill="#190805"/>
<path d="M35.7688 5.05591V204.506H145.019V238.33H0V5.05591H35.7688Z" fill="#190805"/>
</svg>
