<svg width="156" height="156" viewBox="0 0 156 156" fill="none" xmlns="http://www.w3.org/2000/svg">
<path d="M0 78C0 34.9218 34.9218 0 78 0C121.078 0 156 34.9218 156 78C156 121.078 121.078 156 78 156C34.9218 156 0 121.078 0 78Z" fill="#E94735"/>
<path d="M36 47V109.863H76.9498V66.0495H60.352L57.4069 96.6961C57.3124 97.6795 56.4154 98.4336 55.3402 98.4336H54.6465V47H36Z" fill="#FDFCFC"/>
<path d="M79.543 98.4336V109.863H106.562C113.984 109.863 120 103.853 120 96.4394C120 91.1495 120 85.9138 120 84.1465H96.815L98.6026 60.0073C98.6767 59.0077 99.5814 58.2316 100.673 58.2316H101.328V81.7653H120V47H87.9333C83.2995 47 79.543 50.7526 79.543 55.3818V96.0525H101.328V96.5287C101.328 97.5808 100.407 98.4336 99.2615 98.4336H79.543Z" fill="#FDFCFC"/>
</svg>
