<svg width="304" height="228" viewBox="0 0 304 228" fill="none" xmlns="http://www.w3.org/2000/svg">
<path d="M0 0V228H148.199V69.0909H88.1311L77.4726 180.244C77.1306 183.81 73.8842 186.545 69.9932 186.545H67.4827V0H0Z" fill="#0C4635"/>
<path d="M157.584 186.545V228H255.368C282.227 228 304 206.202 304 179.313C304 160.126 304 141.137 304 134.727H220.092L226.562 47.1764C226.83 43.5509 230.104 40.736 234.053 40.736H236.423V126.091H304V0H187.949C171.179 0 157.584 13.6105 157.584 30.4V177.909H236.423V179.636C236.423 183.452 233.093 186.545 228.946 186.545H157.584Z" fill="#0C4635"/>
</svg>
